<?xml version="1.0" encoding="UTF-8"?>
<svg width="341px" height="572px" viewBox="0 0 341 572" version="1.1" xmlns="http://www.w3.org/2000/svg" xmlns:xlink="http://www.w3.org/1999/xlink">
    <title>Artboard Copy 2</title>
    <g id="Artboard-Copy-2" stroke="none" stroke-width="1" fill="none" fill-rule="evenodd">
        <rect fill="#20214F" x="0" y="0" width="341" height="572"></rect>
        <g id="Group-3" transform="translate(34.000000, 298.000000)" stroke="#252E6A" stroke-width="10">
            <path d="M65,160 C65,84.3790283 65,41.045695 65,30 C65,13.4314575 51.5685425,0 35,0 C18.4314575,0 5,13.4314575 5,30 C5,41.045695 5,84.3790283 5,160" id="Oval" stroke-linejoin="round"></path>
            <path d="M65,210 C65,181.045695 65,161.045695 65,150 C65,133.431458 51.5685425,120 35,120 C18.4314575,120 5,133.431458 5,150 C5,161.045695 5,181.045695 5,210" id="Oval-Copy" stroke-linejoin="round"></path>
            <path d="M65,210 C65,201.045695 65,191.045695 65,180 C65,163.431458 51.5685425,150 35,150 C18.4314575,150 5,163.431458 5,180 C5,191.045695 5,201.045695 5,210" id="Oval-Copy-6" stroke-linejoin="round"></path>
            <circle id="Oval" cx="35" cy="208" r="30"></circle>
            <path d="M65,150 C65,141.045695 65,131.045695 65,120 C65,103.431458 51.5685425,90 35,90 C18.4314575,90 5,103.431458 5,120 C5,131.045695 5,141.045695 5,150" id="Oval-Copy-3" stroke-linejoin="round"></path>
            <path d="M65,110 C65,107.712362 65,101.045695 65,90 C65,73.4314575 51.5685425,60 35,60 C18.4314575,60 5,73.4314575 5,90 C5,101.045695 5,107.712362 5,110" id="Oval-Copy-4" stroke-linejoin="round"></path>
            <path d="M65,80 C65,77.7123617 65,71.045695 65,60 C65,43.4314575 51.5685425,30 35,30 C18.4314575,30 5,43.4314575 5,60 C5,71.045695 5,77.7123617 5,80" id="Oval-Copy-5" stroke-linejoin="round"></path>
        </g>
        <g id="Group-5" transform="translate(163.500000, 267.000000) rotate(-90.000000) translate(-163.500000, -267.000000) translate(22.000000, 246.000000)" fill="#252E6A">
            <circle id="Oval-Copy-11" cx="71" cy="21" r="15"></circle>
            <circle id="Oval-Copy-14" cx="212" cy="21" r="15"></circle>
            <circle id="Oval-Copy-18" cx="142" cy="21" r="15"></circle>
            <path d="M122.230535,7 C128.310431,7 133.558264,10.562521 136.000487,15.713995 C133.355899,12.2679457 129.19497,10.0461389 124.515115,10.0461389 C116.524103,10.0461389 110.046107,16.5242024 110.046107,24.5152986 C110.046107,29.1970151 112.269612,33.3593986 115.718202,36.004018 C110.564719,33.5618335 107,28.3125607 107,22.2306945 C107,13.8190142 113.818943,7 122.230535,7 Z" id="Combined-Shape" transform="translate(121.500000, 21.500000) rotate(-45.000000) translate(-121.500000, -21.500000) "></path>
            <path d="M263.230535,7 C269.310431,7 274.558264,10.562521 277.000487,15.713995 C274.355899,12.2679457 270.19497,10.0461389 265.515115,10.0461389 C257.524103,10.0461389 251.046107,16.5242024 251.046107,24.5152986 C251.046107,29.1970151 253.269612,33.3593986 256.718202,36.004018 C251.564719,33.5618335 248,28.3125607 248,22.2306945 C248,13.8190142 254.818943,7 263.230535,7 Z" id="Combined-Shape-Copy-3" transform="translate(262.500000, 21.500000) rotate(-45.000000) translate(-262.500000, -21.500000) "></path>
            <path d="M22.2305349,7 C28.3104305,7 33.5582635,10.562521 36.0004866,15.713995 C33.3558989,12.2679457 29.1949697,10.0461389 24.5151151,10.0461389 C16.5241026,10.0461389 10.046107,16.5242024 10.046107,24.5152986 C10.046107,29.1970151 12.2696121,33.3593986 15.7182016,36.004018 C10.5647186,33.5618335 7,28.3125607 7,22.2306945 C7,13.8190142 13.8189427,7 22.2305349,7 Z" id="Combined-Shape-Copy" transform="translate(21.500000, 21.500000) scale(-1, 1) rotate(-45.000000) translate(-21.500000, -21.500000) "></path>
            <path d="M163.230535,7 C169.310431,7 174.558264,10.562521 177.000487,15.713995 C174.355899,12.2679457 170.19497,10.0461389 165.515115,10.0461389 C157.524103,10.0461389 151.046107,16.5242024 151.046107,24.5152986 C151.046107,29.1970151 153.269612,33.3593986 156.718202,36.004018 C151.564719,33.5618335 148,28.3125607 148,22.2306945 C148,13.8190142 154.818943,7 163.230535,7 Z" id="Combined-Shape-Copy-2" transform="translate(162.500000, 21.500000) scale(-1, 1) rotate(-45.000000) translate(-162.500000, -21.500000) "></path>
            <path d="M112,29 C112,20.7157288 105.284271,14 97,14 C88.7157288,14 82,20.7157288 82,29" id="Oval-Copy-12" transform="translate(97.000000, 21.500000) rotate(-90.000000) translate(-97.000000, -21.500000) "></path>
            <path d="M253,29 C253,20.7157288 246.284271,14 238,14 C229.715729,14 223,20.7157288 223,29" id="Oval-Copy-21" transform="translate(238.000000, 21.500000) rotate(-90.000000) translate(-238.000000, -21.500000) "></path>
            <path d="M61,29 C61,20.7157288 54.2842712,14 46,14 C37.7157288,14 31,20.7157288 31,29" id="Oval-Copy-13" transform="translate(46.000000, 21.500000) scale(-1, 1) rotate(-90.000000) translate(-46.000000, -21.500000) "></path>
            <path d="M202,29 C202,20.7157288 195.284271,14 187,14 C178.715729,14 172,20.7157288 172,29" id="Oval-Copy-15" transform="translate(187.000000, 21.500000) scale(-1, 1) rotate(-90.000000) translate(-187.000000, -21.500000) "></path>
        </g>
        <g id="Group-4" transform="translate(284.000000, 328.500000) rotate(-90.000000) translate(-284.000000, -328.500000) translate(204.000000, 298.000000)" stroke="#252E6A" stroke-width="15">
            <path d="M0,30.5462809 L0,10.5462809 C1.14524971,3.51542698 4.41424613,-7.10542736e-15 9.80698925,-7.10542736e-15 C15.1997324,-7.10542736e-15 18.5974026,3.51542698 20,10.5462809 L20,50.5462809 C21.0392833,57.1025557 24.3899611,60.3806931 30.0520334,60.3806931 C35.7141058,60.3806931 39.0300946,57.1025557 40,50.5462809 L40,29.5462809" id="Path-2"></path>
            <path d="M40,30.5462809 L40,10.5462809 C41.1452497,3.51542698 44.4142461,-7.10542736e-15 49.8069893,-7.10542736e-15 C55.1997324,-7.10542736e-15 58.5974026,3.51542698 60,10.5462809 L60,50.5462809 C61.0392833,57.1025557 64.3899611,60.3806931 70.0520334,60.3806931 C75.7141058,60.3806931 79.0300946,57.1025557 80,50.5462809 L80,29.5462809" id="Path-2-Copy"></path>
            <path d="M80,30.5462809 L80,10.5462809 C81.1452497,3.51542698 84.4142461,-7.10542736e-15 89.8069893,-7.10542736e-15 C95.1997324,-7.10542736e-15 98.5974026,3.51542698 100,10.5462809 L100,50.5462809 C101.039283,57.1025557 104.389961,60.3806931 110.052033,60.3806931 C115.714106,60.3806931 119.030095,57.1025557 120,50.5462809 L120,29.5462809" id="Path-2-Copy-2"></path>
            <path d="M120,30.5462809 L120,10.5462809 C121.14525,3.51542698 124.414246,-7.10542736e-15 129.806989,-7.10542736e-15 C135.199732,-7.10542736e-15 138.597403,3.51542698 140,10.5462809 L140,50.5462809 C141.039283,57.1025557 144.389961,60.3806931 150.052033,60.3806931 C155.714106,60.3806931 159.030095,57.1025557 160,50.5462809 L160,30.5462809" id="Path-2-Copy-3"></path>
        </g>
        <g id="Group-2" transform="translate(254.000000, 79.500000) scale(1, -1) translate(-254.000000, -79.500000) translate(224.000000, -1.000000)">
            <path d="M60,160 C60,84.3790283 60,41.045695 60,30 C60,13.4314575 46.5685425,0 30,0 C13.4314575,0 0,13.4314575 0,30 C0,41.045695 0,84.3790283 0,160" id="Oval-Copy-7" stroke="#252E6A" stroke-width="5" stroke-linejoin="round"></path>
            <path d="M53,160 C53,85.9509379 53,44.7842712 53,36.5 C53,24.0735931 42.9264069,14 30.5,14 C18.0735931,14 8,24.0735931 8,36.5 C8,44.7842712 8,85.9509379 8,160" id="Oval-Copy-8" stroke="#252E6A" stroke-width="5" stroke-linejoin="round"></path>
            <path d="M45,160 C45,87.6110455 45,48.6394546 45,43.0852273 C45,34.7538863 38.2842712,28 30,28 C21.7157288,28 15,34.7538863 15,43.0852273 C15,48.6394546 15,87.6110455 15,160" id="Oval-Copy-9" stroke="#252E6A" stroke-width="5" stroke-linejoin="round"></path>
            <path d="M38,160 C38,89.1388561 38,52.3197273 38,49.5426136 C38,45.3769432 34.6421356,42 30.5,42 C26.3578644,42 23,45.3769432 23,49.5426136 C23,52.3197273 23,89.1388561 23,160" id="Oval-Copy-10" stroke="#252E6A" stroke-width="5" stroke-linejoin="round"></path>
            <line x1="30.5" y1="53.5" x2="30.5" y2="160.5" id="Line" stroke="#252E6A" stroke-width="5"></line>
            <circle id="Oval" fill="#252E6A" cx="30.5" cy="53.5" r="2.5"></circle>
        </g>
        <g id="Group" transform="translate(154.000000, 458.000000)" fill="#252E6A">
            <path d="M20,40 C25.1978628,40 62.3005617,70.2280225 65.8570127,66.977433 C69.8581818,63.3203718 40,25.8478322 40,20 C40,8.954305 31.045695,0 20,0 C8.954305,0 -7.10542736e-15,8.954305 -7.10542736e-15,20 C-7.10542736e-15,31.045695 8.954305,40 20,40 Z" id="Oval"></path>
            <path d="M63.1828677,82.6944341 C74.2285627,82.6944341 83.1828677,73.740129 83.1828677,62.6944341 C83.1828677,51.6487391 74.2285627,42.6944341 63.1828677,42.6944341 C57.6457249,42.6944341 19.9173553,12.6696126 16.2958709,16.3054292 C12.6930858,19.9224726 43.1828677,57.1858818 43.1828677,62.6944341 C43.1828677,73.740129 52.1371727,82.6944341 63.1828677,82.6944341 Z" id="Oval-Copy-2"></path>
            <path d="M36,40 C41.1978628,40 78.3005617,70.2280225 81.8570127,66.977433 C85.8581818,63.3203718 56,25.8478322 56,20 C56,8.954305 47.045695,0 36,0 C24.954305,0 16,8.954305 16,20 C16,31.045695 24.954305,40 36,40 Z" id="Oval" transform="translate(49.113003, 33.610995) rotate(90.000000) translate(-49.113003, -33.610995) "></path>
            <path d="M47.1828677,82.6944341 C58.2285627,82.6944341 67.1828677,73.740129 67.1828677,62.6944341 C67.1828677,51.6487391 58.2285627,42.6944341 47.1828677,42.6944341 C41.6457249,42.6944341 3.91735527,12.6696126 0.295870923,16.3054292 C-3.30691425,19.9224726 27.1828677,57.1858818 27.1828677,62.6944341 C27.1828677,73.740129 36.1371727,82.6944341 47.1828677,82.6944341 Z" id="Oval-Copy-2" transform="translate(33.591434, 49.347217) rotate(90.000000) translate(-33.591434, -49.347217) "></path>
        </g>
        <g id="Group-6" transform="translate(41.000000, 27.000000)" fill="#252E6A">
            <circle id="Oval" cx="28.143489" cy="8.5" r="8.5"></circle>
            <circle id="Oval" transform="translate(44.786978, 20.592203) rotate(72.000000) translate(-44.786978, -20.592203) " cx="44.7869781" cy="20.5922026" r="8.5"></circle>
            <circle id="Oval" transform="translate(38.429731, 40.157797) rotate(144.000000) translate(-38.429731, -40.157797) " cx="38.429731" cy="40.1577974" r="8.5"></circle>
            <circle id="Oval" transform="translate(17.857247, 40.157797) rotate(216.000000) translate(-17.857247, -40.157797) " cx="17.8572471" cy="40.1577974" r="8.5"></circle>
            <circle id="Oval" transform="translate(11.500000, 20.592203) rotate(288.000000) translate(-11.500000, -20.592203) " cx="11.5" cy="20.5922026" r="8.5"></circle>
        </g>
        <polygon id="Path" stroke="#252E6A" stroke-width="3" fill="#252E6A" stroke-linejoin="round" points="89 160 49 200 64 205 49 240 89 200 74 195"></polygon>
    </g>
</svg>