<?xml version="1.0" encoding="UTF-8"?>
<svg width="84px" height="83px" viewBox="0 0 84 83" version="1.1" xmlns="http://www.w3.org/2000/svg" xmlns:xlink="http://www.w3.org/1999/xlink">
    <title>Group</title>
    <g id="Shape-Inspiration" stroke="none" stroke-width="1" fill="none" fill-rule="evenodd">
        <g id="Artboard-Copy" transform="translate(-153.000000, -235.000000)" fill="#F35F46">
            <g id="Group" transform="translate(153.000000, 235.000000)">
                <path d="M20,40 C25.1978628,40 62.3005617,70.2280225 65.8570127,66.977433 C69.8581818,63.3203718 40,25.8478322 40,20 C40,8.954305 31.045695,0 20,0 C8.954305,0 -7.10542736e-15,8.954305 -7.10542736e-15,20 C-7.10542736e-15,31.045695 8.954305,40 20,40 Z" id="Oval"></path>
                <path d="M63.1828677,82.6944341 C74.2285627,82.6944341 83.1828677,73.740129 83.1828677,62.6944341 C83.1828677,51.6487391 74.2285627,42.6944341 63.1828677,42.6944341 C57.6457249,42.6944341 19.9173553,12.6696126 16.2958709,16.3054292 C12.6930858,19.9224726 43.1828677,57.1858818 43.1828677,62.6944341 C43.1828677,73.740129 52.1371727,82.6944341 63.1828677,82.6944341 Z" id="Oval-Copy-2"></path>
                <path d="M36,40 C41.1978628,40 78.3005617,70.2280225 81.8570127,66.977433 C85.8581818,63.3203718 56,25.8478322 56,20 C56,8.954305 47.045695,0 36,0 C24.954305,0 16,8.954305 16,20 C16,31.045695 24.954305,40 36,40 Z" id="Oval" transform="translate(49.113003, 33.610995) rotate(90.000000) translate(-49.113003, -33.610995) "></path>
                <path d="M47.1828677,82.6944341 C58.2285627,82.6944341 67.1828677,73.740129 67.1828677,62.6944341 C67.1828677,51.6487391 58.2285627,42.6944341 47.1828677,42.6944341 C41.6457249,42.6944341 3.91735527,12.6696126 0.295870923,16.3054292 C-3.30691425,19.9224726 27.1828677,57.1858818 27.1828677,62.6944341 C27.1828677,73.740129 36.1371727,82.6944341 47.1828677,82.6944341 Z" id="Oval-Copy-2" transform="translate(33.591434, 49.347217) rotate(90.000000) translate(-33.591434, -49.347217) "></path>
            </g>
        </g>
    </g>
</svg>