<?xml version="1.0" encoding="UTF-8"?>
<svg width="284px" height="43px" viewBox="0 0 284 43" version="1.1" xmlns="http://www.w3.org/2000/svg" xmlns:xlink="http://www.w3.org/1999/xlink">
    <title>Group 5</title>
    <g id="Shape-Inspiration" stroke="none" stroke-width="1" fill="none" fill-rule="evenodd">
        <g id="Artboard-Copy" transform="translate(-271.000000, -285.000000)" fill="#F35F46">
            <g id="Group-5" transform="translate(271.000000, 285.000000)">
                <circle id="Oval-Copy-11" cx="71" cy="21" r="15"></circle>
                <circle id="Oval-Copy-14" cx="212" cy="21" r="15"></circle>
                <circle id="Oval-Copy-18" cx="142" cy="21" r="15"></circle>
                <path d="M122.230535,7 C128.310431,7 133.558264,10.562521 136.000487,15.713995 C133.355899,12.2679457 129.19497,10.0461389 124.515115,10.0461389 C116.524103,10.0461389 110.046107,16.5242024 110.046107,24.5152986 C110.046107,29.1970151 112.269612,33.3593986 115.718202,36.004018 C110.564719,33.5618335 107,28.3125607 107,22.2306945 C107,13.8190142 113.818943,7 122.230535,7 Z" id="Combined-Shape" transform="translate(121.500000, 21.500000) rotate(-45.000000) translate(-121.500000, -21.500000) "></path>
                <path d="M263.230535,7 C269.310431,7 274.558264,10.562521 277.000487,15.713995 C274.355899,12.2679457 270.19497,10.0461389 265.515115,10.0461389 C257.524103,10.0461389 251.046107,16.5242024 251.046107,24.5152986 C251.046107,29.1970151 253.269612,33.3593986 256.718202,36.004018 C251.564719,33.5618335 248,28.3125607 248,22.2306945 C248,13.8190142 254.818943,7 263.230535,7 Z" id="Combined-Shape-Copy-3" transform="translate(262.500000, 21.500000) rotate(-45.000000) translate(-262.500000, -21.500000) "></path>
                <path d="M22.2305349,7 C28.3104305,7 33.5582635,10.562521 36.0004866,15.713995 C33.3558989,12.2679457 29.1949697,10.0461389 24.5151151,10.0461389 C16.5241026,10.0461389 10.046107,16.5242024 10.046107,24.5152986 C10.046107,29.1970151 12.2696121,33.3593986 15.7182016,36.004018 C10.5647186,33.5618335 7,28.3125607 7,22.2306945 C7,13.8190142 13.8189427,7 22.2305349,7 Z" id="Combined-Shape-Copy" transform="translate(21.500000, 21.500000) scale(-1, 1) rotate(-45.000000) translate(-21.500000, -21.500000) "></path>
                <path d="M163.230535,7 C169.310431,7 174.558264,10.562521 177.000487,15.713995 C174.355899,12.2679457 170.19497,10.0461389 165.515115,10.0461389 C157.524103,10.0461389 151.046107,16.5242024 151.046107,24.5152986 C151.046107,29.1970151 153.269612,33.3593986 156.718202,36.004018 C151.564719,33.5618335 148,28.3125607 148,22.2306945 C148,13.8190142 154.818943,7 163.230535,7 Z" id="Combined-Shape-Copy-2" transform="translate(162.500000, 21.500000) scale(-1, 1) rotate(-45.000000) translate(-162.500000, -21.500000) "></path>
                <path d="M112,29 C112,20.7157288 105.284271,14 97,14 C88.7157288,14 82,20.7157288 82,29" id="Oval-Copy-12" transform="translate(97.000000, 21.500000) rotate(-90.000000) translate(-97.000000, -21.500000) "></path>
                <path d="M253,29 C253,20.7157288 246.284271,14 238,14 C229.715729,14 223,20.7157288 223,29" id="Oval-Copy-21" transform="translate(238.000000, 21.500000) rotate(-90.000000) translate(-238.000000, -21.500000) "></path>
                <path d="M61,29 C61,20.7157288 54.2842712,14 46,14 C37.7157288,14 31,20.7157288 31,29" id="Oval-Copy-13" transform="translate(46.000000, 21.500000) scale(-1, 1) rotate(-90.000000) translate(-46.000000, -21.500000) "></path>
                <path d="M202,29 C202,20.7157288 195.284271,14 187,14 C178.715729,14 172,20.7157288 172,29" id="Oval-Copy-15" transform="translate(187.000000, 21.500000) scale(-1, 1) rotate(-90.000000) translate(-187.000000, -21.500000) "></path>
            </g>
        </g>
    </g>
</svg>