<?xml version="1.0" encoding="UTF-8"?>
<svg width="70px" height="248px" viewBox="0 0 70 248" version="1.1" xmlns="http://www.w3.org/2000/svg" xmlns:xlink="http://www.w3.org/1999/xlink">
    <title>Group 3</title>
    <g id="Shape-Inspiration" stroke="none" stroke-width="1" fill="none" fill-rule="evenodd">
        <g id="Artboard-Copy" transform="translate(-29.000000, -70.000000)" stroke="#F35F46" stroke-width="10">
            <g id="Group-3" transform="translate(29.000000, 75.000000)">
                <path d="M65,160 C65,84.3790283 65,41.045695 65,30 C65,13.4314575 51.5685425,0 35,0 C18.4314575,0 5,13.4314575 5,30 C5,41.045695 5,84.3790283 5,160" id="Oval" stroke-linejoin="round"></path>
                <path d="M65,210 C65,181.045695 65,161.045695 65,150 C65,133.431458 51.5685425,120 35,120 C18.4314575,120 5,133.431458 5,150 C5,161.045695 5,181.045695 5,210" id="Oval-Copy" stroke-linejoin="round"></path>
                <path d="M65,210 C65,201.045695 65,191.045695 65,180 C65,163.431458 51.5685425,150 35,150 C18.4314575,150 5,163.431458 5,180 C5,191.045695 5,201.045695 5,210" id="Oval-Copy-6" stroke-linejoin="round"></path>
                <circle id="Oval" cx="35" cy="208" r="30"></circle>
                <path d="M65,150 C65,141.045695 65,131.045695 65,120 C65,103.431458 51.5685425,90 35,90 C18.4314575,90 5,103.431458 5,120 C5,131.045695 5,141.045695 5,150" id="Oval-Copy-3" stroke-linejoin="round"></path>
                <path d="M65,110 C65,107.712362 65,101.045695 65,90 C65,73.4314575 51.5685425,60 35,60 C18.4314575,60 5,73.4314575 5,90 C5,101.045695 5,107.712362 5,110" id="Oval-Copy-4" stroke-linejoin="round"></path>
                <path d="M65,80 C65,77.7123617 65,71.045695 65,60 C65,43.4314575 51.5685425,30 35,30 C18.4314575,30 5,43.4314575 5,60 C5,71.045695 5,77.7123617 5,80" id="Oval-Copy-5" stroke-linejoin="round"></path>
            </g>
        </g>
    </g>
</svg>