<?xml version="1.0" encoding="UTF-8"?>
<svg width="176px" height="76px" viewBox="0 0 176 76" version="1.1" xmlns="http://www.w3.org/2000/svg" xmlns:xlink="http://www.w3.org/1999/xlink">
    <title>Group 4</title>
    <g id="Shape-Inspiration" stroke="none" stroke-width="1" fill="none" fill-rule="evenodd">
        <g id="Artboard-Copy" transform="translate(-352.000000, -189.000000)" stroke="#F35F46" stroke-width="15">
            <g id="Group-4" transform="translate(360.000000, 197.000000)">
                <path d="M0,30.5462809 L0,10.5462809 C1.14524971,3.51542698 4.41424613,-7.10542736e-15 9.80698925,-7.10542736e-15 C15.1997324,-7.10542736e-15 18.5974026,3.51542698 20,10.5462809 L20,50.5462809 C21.0392833,57.1025557 24.3899611,60.3806931 30.0520334,60.3806931 C35.7141058,60.3806931 39.0300946,57.1025557 40,50.5462809 L40,29.5462809" id="Path-2"></path>
                <path d="M40,30.5462809 L40,10.5462809 C41.1452497,3.51542698 44.4142461,-7.10542736e-15 49.8069893,-7.10542736e-15 C55.1997324,-7.10542736e-15 58.5974026,3.51542698 60,10.5462809 L60,50.5462809 C61.0392833,57.1025557 64.3899611,60.3806931 70.0520334,60.3806931 C75.7141058,60.3806931 79.0300946,57.1025557 80,50.5462809 L80,29.5462809" id="Path-2-Copy"></path>
                <path d="M80,30.5462809 L80,10.5462809 C81.1452497,3.51542698 84.4142461,-7.10542736e-15 89.8069893,-7.10542736e-15 C95.1997324,-7.10542736e-15 98.5974026,3.51542698 100,10.5462809 L100,50.5462809 C101.039283,57.1025557 104.389961,60.3806931 110.052033,60.3806931 C115.714106,60.3806931 119.030095,57.1025557 120,50.5462809 L120,29.5462809" id="Path-2-Copy-2"></path>
                <path d="M120,30.5462809 L120,10.5462809 C121.14525,3.51542698 124.414246,-7.10542736e-15 129.806989,-7.10542736e-15 C135.199732,-7.10542736e-15 138.597403,3.51542698 140,10.5462809 L140,50.5462809 C141.039283,57.1025557 144.389961,60.3806931 150.052033,60.3806931 C155.714106,60.3806931 159.030095,57.1025557 160,50.5462809 L160,30.5462809" id="Path-2-Copy-3"></path>
            </g>
        </g>
    </g>
</svg>