<?xml version="1.0" encoding="UTF-8"?>
<svg width="900px" height="48px" viewBox="0 0 900 48" version="1.1" xmlns="http://www.w3.org/2000/svg" xmlns:xlink="http://www.w3.org/1999/xlink">
    <title>Artboard Copy 2</title>
    <g id="Artboard-Copy-2" stroke="none" stroke-width="1" fill="none" fill-rule="evenodd" stroke-linecap="round" stroke-linejoin="round">
        <polyline id="Path-4" stroke="#99EE53" stroke-width="5" points="0 44 20 4 40 44 60 4 80 44 100 4 120 44 140 4 160 44 180 4 200 44 220 4 240 44 260 4 280 44 300 4 320 44 340 4 360 44 380 4 400 44 420 4 440 44 460 4 480 44 500 4 520 44 540 4 560 44 580 4 600 44 620 4 640 44 660 4 680 44 700 4 720 44 740 4 760 44 780 4 800 44 820 4 840 44 860 4 880 44 900 4"></polyline>
    </g>
</svg>